<?xml version="1.0" standalone="no"?>
<!DOCTYPE svg PUBLIC "-//W3C//DTD SVG 20010904//EN"
 "http://www.w3.org/TR/2001/REC-SVG-20010904/DTD/svg10.dtd">
<svg version="1.0" xmlns="http://www.w3.org/2000/svg"
 width="1920.000000pt" height="1920.000000pt" viewBox="0 0 1920.000000 1920.000000"
 preserveAspectRatio="xMidYMid meet">

<g transform="translate(0.000000,1920.000000) scale(0.100000,-0.100000)"
fill="#000000" stroke="none">
<path d="M0 9600 l0 -9600 9600 0 9600 0 0 9600 0 9600 -9600 0 -9600 0 0
-9600z m9735 5190 c76 -39 122 -82 151 -145 64 -135 -4 -276 -164 -341 -68
-27 -72 -39 -47 -153 32 -143 115 -437 165 -584 127 -373 311 -629 487 -676
125 -34 373 87 610 298 210 187 425 460 490 623 l16 40 -53 46 c-91 80 -112
164 -64 260 43 86 124 134 229 135 157 1 275 -96 275 -226 0 -127 -99 -219
-250 -233 -54 -5 -73 -11 -81 -25 -16 -30 -66 -253 -95 -424 -33 -193 -37
-366 -11 -462 53 -201 173 -313 344 -321 65 -4 83 0 167 32 103 40 268 143
362 227 93 83 213 200 246 242 l30 38 -26 38 c-84 121 -30 249 120 282 74 17
126 0 181 -56 48 -50 62 -105 44 -171 -12 -44 -61 -97 -104 -113 -16 -6 -61
-11 -102 -11 l-73 0 -117 -137 c-186 -216 -369 -471 -500 -698 -61 -105 -179
-340 -208 -412 l-17 -43 -2133 0 -2134 0 -42 93 c-166 365 -435 777 -714 1095
l-91 102 -73 0 c-86 0 -133 19 -181 74 -65 74 -47 186 39 243 59 39 158 45
224 13 101 -49 131 -164 67 -254 l-32 -45 58 -68 c52 -60 156 -160 262 -250
19 -17 66 -51 104 -77 354 -241 645 -183 715 144 22 103 25 324 7 450 -20 133
-68 355 -93 432 l-18 52 -83 13 c-127 20 -181 54 -221 143 -51 113 -6 221 115
281 153 76 318 21 379 -124 35 -85 10 -165 -76 -240 l-52 -45 28 -49 c40 -69
167 -249 333 -472 132 -176 153 -199 240 -265 52 -39 105 -79 117 -88 12 -10
56 -32 96 -50 69 -31 82 -33 185 -33 107 0 112 1 187 38 129 64 226 176 312
361 111 236 307 915 283 978 -4 8 -27 21 -53 28 -111 31 -187 131 -187 245 0
162 127 268 328 274 27 1 60 -9 99 -29z m-335 -4150 l0 -790 -450 0 -450 0 0
340 0 340 -435 0 -435 0 0 -575 0 -575 885 0 885 0 0 -450 0 -450 -885 0 -885
0 0 -169 0 -169 363 -468 c199 -258 395 -511 435 -563 l72 -93 2 208 3 209
448 3 447 2 0 -1527 c0 -851 -4 -1523 -9 -1517 -4 5 -325 419 -711 919 -387
501 -808 1045 -936 1210 -128 165 -408 527 -623 805 l-390 505 -1 1798 0 1797
1335 0 1335 0 0 -790z m3070 -35 l0 -825 -445 0 -445 0 -2 373 -3 372 -437 3
-438 2 0 -1756 0 -1756 247 318 c136 176 334 431 440 568 l193 248 0 129 0
129 -327 2 -328 3 -3 448 -2 447 775 0 775 0 0 -737 -1 -738 -390 -505 c-215
-278 -495 -640 -623 -805 -128 -165 -549 -709 -935 -1210 -387 -500 -707 -914
-712 -919 -5 -6 -9 1430 -9 3512 l0 3522 1335 0 1335 0 0 -825z"/>
</g>
</svg>
